<?xml version="1.0" encoding="utf-8"?>
<!-- Generator: Adobe Illustrator 21.0.0, SVG Export Plug-In . SVG Version: 6.00 Build 0)  -->
<svg version="1.1" id="Layer_1" xmlns="http://www.w3.org/2000/svg" xmlns:xlink="http://www.w3.org/1999/xlink" x="0px" y="0px"
	 viewBox="0 0 201 32" style="enable-background:new 0 0 201 32;" xml:space="preserve">
<style type="text/css">
	.st0{fill:#FFFFFF;}
	.st1{fill:#FC510B;}
</style>
<g>
	<path class="st0" d="M12.9,24.6c0.3,0,0.5,0.1,0.5,0.4v1.5c0,0.3-0.2,0.5-0.5,0.5H1.4c-0.3,0-0.4-0.1-0.4-0.5v-1.5
		c0-0.3,0.1-0.4,0.4-0.4h4.6V4.7c0-1.7-0.9-2-3.1-2H0.9c-0.3,0-0.5-0.1-0.5-0.4V1.1c0-0.2,0.1-0.4,0.4-0.5c0.6-0.2,1.7-0.3,2.6-0.3
		c1.7,0,5.2,0,5.2,3.8v20.6H12.9z"/>
	<path class="st0" d="M32.6,6.3v2.2c0,2.4-0.4,4.5-3.1,5.8L21.1,19c-2.2,1.2-2.8,2.1-2.8,4v1.7h14.2c0.2,0,0.2,0,0.2,0.2v2
		c0,0.2-0.1,0.2-0.2,0.2H16.4c-0.7,0-0.9-0.4-0.9-1v-3c0-2.8,1-4.3,4.3-6.1l8.5-4.7c1.4-0.8,1.6-2.1,1.6-3.7V6.3
		c0-3.3-3-3.7-6.4-3.7h-6.3c-0.2,0-0.2,0-0.2-0.2V1c0-0.2,0.1-0.2,0.2-0.3c2.7-0.2,3.9-0.4,6.3-0.4C28.3,0.3,32.6,0.9,32.6,6.3z"/>
	<path class="st0" d="M52.9,7.2v0.7c0,3.1-1.2,5.2-3.4,5.8c2.2,0.7,3.4,2.8,3.4,5.8v0.6c0,5.7-2.5,7-10.7,7c-1.3,0-3.4-0.1-5.1-0.2
		c-0.2,0-0.4,0-0.4-0.2v-1.7c0-0.2,0.2-0.2,0.5-0.2h5.4c5.9,0,7.7-0.9,7.7-4.7v-0.4c0-3.5-1.3-4.8-5.3-4.8h-6.5
		c-0.3,0-0.4-0.1-0.4-0.4v-1.6c0-0.2,0.1-0.4,0.4-0.4h6.4c4,0,5.3-1.2,5.3-4.9V7.1c0-3.8-2.1-4.4-7.9-4.4h-5.1
		c-0.3,0-0.5-0.1-0.5-0.2V0.8c0-0.2,0.2-0.2,0.4-0.2c1.8-0.2,3.8-0.2,5.1-0.2C50.2,0.3,52.9,1.4,52.9,7.2z"/>
	<path class="st1" d="M70.2,27.1l1.3,4.3c0.1,0.4-0.2,0.6-0.5,0.6h-2.4c-0.4,0-0.6-0.2-0.7-0.6l-1.3-4.3c-7.4-0.4-9.3-3.7-9.3-13.5
		C57.2,3.2,59.4,0,68,0c8.6,0,10.8,3.2,10.8,13.6C78.8,23.2,77,26.6,70.2,27.1z M75.2,13.6c0-8.1-1.1-10.5-7.2-10.5
		c-6.1,0-7.2,2.4-7.2,10.5c0,8.1,1.1,10.4,7.2,10.4C74.1,24,75.2,21.7,75.2,13.6z"/>
	<path class="st0" d="M103.7,0.5c0.4,0,0.5,0.1,0.5,0.4v12.9c0,10.7-2.1,13.4-10.2,13.4c-8.2,0-10.2-2.7-10.2-13.4V0.9
		c0-0.4,0.1-0.4,0.4-0.4h1.8c0.4,0,0.5,0.1,0.5,0.4v12.9c0,8.8,1.5,11,7.5,11c6,0,7.5-2.2,7.5-11V0.9c0-0.4,0.1-0.4,0.4-0.4H103.7z"
		/>
	<path class="st0" d="M122.8,4.4l6.1,22.1c0.1,0.4,0,0.5-0.4,0.5h-2c-0.2,0-0.3-0.1-0.4-0.5l-2.3-8.2h-11.1l-2.3,8.2
		c-0.1,0.4-0.2,0.5-0.4,0.5h-2c-0.4,0-0.4-0.1-0.4-0.5l6.3-22.1c1-3.6,1.5-4.1,4.4-4.1C121.3,0.3,121.8,0.8,122.8,4.4z M116.3,5
		l-3.1,10.9h9.9L120.2,5c-0.6-2.1-0.7-2.3-2-2.3C117,2.7,116.9,3,116.3,5z"/>
	<path class="st0" d="M153.4,0.5c0.3,0,0.4,0.1,0.4,0.4v25.6c0,0.3-0.1,0.5-0.4,0.5h-1.7c-0.4,0-0.7,0-1-0.5L135.7,4v22.5
		c0,0.3-0.2,0.5-0.5,0.5h-1.8c-0.3,0-0.5-0.1-0.5-0.5V0.9c0-0.3,0.2-0.4,0.5-0.4h1.9c1,0,1.2,0.1,1.7,0.8l14.1,21.2V0.9
		c0-0.3,0.1-0.4,0.5-0.4H153.4z"/>
	<path class="st0" d="M177.3,0.5c0.3,0,0.4,0.1,0.4,0.4v1.5c0,0.3-0.1,0.5-0.4,0.5h-8.3v23.7c0,0.3-0.1,0.5-0.5,0.5h-1.8
		c-0.3,0-0.5-0.1-0.5-0.5V2.9h-8.3c-0.3,0-0.5-0.1-0.5-0.5V0.9c0-0.3,0.2-0.4,0.5-0.4H177.3z"/>
	<path class="st0" d="M200.6,13.8c0,10.4-2,13.4-10.5,13.4c-8.5,0-10.5-3-10.5-13.4s2-13.5,10.5-13.5
		C198.6,0.3,200.6,3.4,200.6,13.8z M182.3,13.8c0,8.6,1.2,11,7.8,11c6.6,0,7.8-2.4,7.8-11s-1.2-11.1-7.8-11.1
		C183.5,2.7,182.3,5.2,182.3,13.8z"/>
</g>
</svg>
